<svg
  viewBox="0 0 128 128"
  xmlns="http://www.w3.org/2000/svg"
  style="width: 200px"
>
    <!-- Pole -->
    <path
    d="M63.83,64.209C62.783,64.209 61.774,64.003 60.826,63.625L58.1,121.373C60.415,122.647 62.232,122.832 64,122.857C65.849,122.883 67.645,122.69 69.9,121.373L67.164,63.484C66.122,63.952 64.999,64.209 63.83,64.209Z"
  />
    <!-- Hub -->
    <path
    d="M71.379,54.182C71.379,50.012 67.999,46.631 63.83,46.631C59.659,46.631 56.279,50.012 56.279,54.182C56.279,58.352 59.659,61.732 63.83,61.732C67.999,61.732 71.379,58.352 71.379,54.182Z"
  />
    <!-- Blades -->
    <g>
        <animateTransform
      attributeName="transform"
      type="rotate"
      from="0 63.83 54.182"
      to="360 63.83 54.182"
      dur="1.3s"
      repeatCount="indefinite"
      calcMode="spline"
      keySplines="0.3 0.2 0.7 0.8"
      keyTimes="0;1"
    />
        <path
      d="M67.318,44.937C67.989,40.717 68.396,35.206 68.396,29.176C68.396,15.902 63.999,5.141 63.999,5.141C63.999,5.141 59.605,15.902 59.605,29.176C59.605,35.152 60.004,40.617 60.663,44.822C61.658,44.484 62.721,44.299 63.83,44.299C65.057,44.299 66.233,44.526 67.318,44.937Z"
    />
        <path
      d="M105.415,76.874C105.415,76.874 98.295,67.687 86.799,61.05C82.043,58.305 77.492,56.067 73.704,54.534C73.614,57.085 72.553,59.392 70.881,61.097C74.008,63.479 77.969,66.104 82.402,68.664C93.899,75.3 105.415,76.874 105.415,76.874Z"
    />
        <path
      d="M53.958,54.672C50.239,56.199 45.816,58.386 41.202,61.05C29.705,67.687 22.585,76.874 22.585,76.874C22.585,76.874 34.102,75.3 45.596,68.664C49.939,66.157 53.83,63.586 56.926,61.244C55.198,59.556 54.085,57.242 53.958,54.672Z"
    />
    </g>
</svg>
